<mxfile host="app.diagrams.net" modified="2021-03-24T18:25:17.669Z" agent="5.0 (X11; Linux x86_64) AppleWebKit/537.36 (KHTML, like Gecko) Chrome/89.0.4389.72 Safari/537.36" etag="cX5JKmB_0CeAf3UvRLgU" version="14.5.1" type="github">
  <diagram name="Page-1" id="e7e014a7-5840-1c2e-5031-d8a46d1fe8dd">
    <mxGraphModel dx="3369" dy="748" grid="1" gridSize="10" guides="1" tooltips="1" connect="1" arrows="1" fold="1" page="1" pageScale="1" pageWidth="1169" pageHeight="826" background="#ffffff" math="0" shadow="0">
      <root>
        <mxCell id="0" />
        <mxCell id="1" parent="0" />
        <mxCell id="uoU9AajrR2amF2qVdHtz-41" value="CLIENTES" style="rounded=0;whiteSpace=wrap;html=1;" vertex="1" parent="1">
          <mxGeometry x="250" y="120" width="120" height="60" as="geometry" />
        </mxCell>
        <mxCell id="uoU9AajrR2amF2qVdHtz-42" value="PETS" style="rounded=0;whiteSpace=wrap;html=1;" vertex="1" parent="1">
          <mxGeometry x="800" y="130" width="120" height="60" as="geometry" />
        </mxCell>
        <mxCell id="uoU9AajrR2amF2qVdHtz-43" value="FUNCIONÁRIOS" style="rounded=0;whiteSpace=wrap;html=1;" vertex="1" parent="1">
          <mxGeometry x="835" y="528" width="120" height="60" as="geometry" />
        </mxCell>
        <mxCell id="uoU9AajrR2amF2qVdHtz-81" style="edgeStyle=orthogonalEdgeStyle;rounded=0;orthogonalLoop=1;jettySize=auto;html=1;exitX=1;exitY=0.5;exitDx=0;exitDy=0;entryX=0;entryY=0.25;entryDx=0;entryDy=0;" edge="1" parent="1" source="uoU9AajrR2amF2qVdHtz-44" target="uoU9AajrR2amF2qVdHtz-41">
          <mxGeometry relative="1" as="geometry" />
        </mxCell>
        <mxCell id="uoU9AajrR2amF2qVdHtz-44" value="Nome" style="ellipse;whiteSpace=wrap;html=1;" vertex="1" parent="1">
          <mxGeometry x="140" y="10" width="80" height="50" as="geometry" />
        </mxCell>
        <mxCell id="uoU9AajrR2amF2qVdHtz-82" style="edgeStyle=orthogonalEdgeStyle;rounded=0;orthogonalLoop=1;jettySize=auto;html=1;exitX=0.5;exitY=1;exitDx=0;exitDy=0;entryX=0.5;entryY=0;entryDx=0;entryDy=0;" edge="1" parent="1" source="uoU9AajrR2amF2qVdHtz-45" target="uoU9AajrR2amF2qVdHtz-41">
          <mxGeometry relative="1" as="geometry" />
        </mxCell>
        <mxCell id="uoU9AajrR2amF2qVdHtz-45" value="&lt;u&gt;CPF&lt;/u&gt;" style="ellipse;whiteSpace=wrap;html=1;" vertex="1" parent="1">
          <mxGeometry x="260" y="5" width="80" height="50" as="geometry" />
        </mxCell>
        <mxCell id="uoU9AajrR2amF2qVdHtz-80" style="edgeStyle=orthogonalEdgeStyle;rounded=0;orthogonalLoop=1;jettySize=auto;html=1;exitX=1;exitY=0.5;exitDx=0;exitDy=0;entryX=0;entryY=0.75;entryDx=0;entryDy=0;" edge="1" parent="1" source="uoU9AajrR2amF2qVdHtz-48" target="uoU9AajrR2amF2qVdHtz-41">
          <mxGeometry relative="1" as="geometry" />
        </mxCell>
        <mxCell id="uoU9AajrR2amF2qVdHtz-48" value="Endereço" style="ellipse;whiteSpace=wrap;html=1;" vertex="1" parent="1">
          <mxGeometry x="130" y="130" width="80" height="50" as="geometry" />
        </mxCell>
        <mxCell id="uoU9AajrR2amF2qVdHtz-77" style="edgeStyle=orthogonalEdgeStyle;rounded=0;orthogonalLoop=1;jettySize=auto;html=1;exitX=1;exitY=0.5;exitDx=0;exitDy=0;entryX=0;entryY=0.5;entryDx=0;entryDy=0;" edge="1" parent="1" source="uoU9AajrR2amF2qVdHtz-49" target="uoU9AajrR2amF2qVdHtz-48">
          <mxGeometry relative="1" as="geometry" />
        </mxCell>
        <mxCell id="uoU9AajrR2amF2qVdHtz-49" value="Rua" style="ellipse;whiteSpace=wrap;html=1;" vertex="1" parent="1">
          <mxGeometry x="10" y="100" width="80" height="50" as="geometry" />
        </mxCell>
        <mxCell id="uoU9AajrR2amF2qVdHtz-78" style="edgeStyle=orthogonalEdgeStyle;rounded=0;orthogonalLoop=1;jettySize=auto;html=1;exitX=1;exitY=0.5;exitDx=0;exitDy=0;entryX=0;entryY=1;entryDx=0;entryDy=0;" edge="1" parent="1" source="uoU9AajrR2amF2qVdHtz-50" target="uoU9AajrR2amF2qVdHtz-48">
          <mxGeometry relative="1" as="geometry" />
        </mxCell>
        <mxCell id="uoU9AajrR2amF2qVdHtz-50" value="Bairro" style="ellipse;whiteSpace=wrap;html=1;" vertex="1" parent="1">
          <mxGeometry x="20" y="170" width="80" height="50" as="geometry" />
        </mxCell>
        <mxCell id="uoU9AajrR2amF2qVdHtz-79" style="edgeStyle=orthogonalEdgeStyle;rounded=0;orthogonalLoop=1;jettySize=auto;html=1;exitX=0.5;exitY=0;exitDx=0;exitDy=0;entryX=0.5;entryY=1;entryDx=0;entryDy=0;" edge="1" parent="1" source="uoU9AajrR2amF2qVdHtz-51" target="uoU9AajrR2amF2qVdHtz-48">
          <mxGeometry relative="1" as="geometry" />
        </mxCell>
        <mxCell id="uoU9AajrR2amF2qVdHtz-51" value="Número" style="ellipse;whiteSpace=wrap;html=1;" vertex="1" parent="1">
          <mxGeometry x="70" y="230" width="80" height="50" as="geometry" />
        </mxCell>
        <mxCell id="uoU9AajrR2amF2qVdHtz-83" style="edgeStyle=orthogonalEdgeStyle;rounded=0;orthogonalLoop=1;jettySize=auto;html=1;exitX=0.5;exitY=1;exitDx=0;exitDy=0;" edge="1" parent="1" source="uoU9AajrR2amF2qVdHtz-53">
          <mxGeometry relative="1" as="geometry">
            <mxPoint x="360" y="130" as="targetPoint" />
          </mxGeometry>
        </mxCell>
        <mxCell id="uoU9AajrR2amF2qVdHtz-53" value="Telefone" style="ellipse;html=1;shape=endState;fillColor=#FFFFFF;strokeColor=#000000;shadow=0;" vertex="1" parent="1">
          <mxGeometry x="380" width="110" height="60" as="geometry" />
        </mxCell>
        <mxCell id="uoU9AajrR2amF2qVdHtz-95" style="edgeStyle=orthogonalEdgeStyle;rounded=0;orthogonalLoop=1;jettySize=auto;html=1;exitX=0;exitY=0.5;exitDx=0;exitDy=0;entryX=0.5;entryY=1;entryDx=0;entryDy=0;" edge="1" parent="1" source="uoU9AajrR2amF2qVdHtz-54" target="uoU9AajrR2amF2qVdHtz-42">
          <mxGeometry relative="1" as="geometry" />
        </mxCell>
        <mxCell id="uoU9AajrR2amF2qVdHtz-54" value="Serviços realizados" style="ellipse;whiteSpace=wrap;html=1;shadow=0;strokeColor=#000000;fillColor=#FFFFFF;" vertex="1" parent="1">
          <mxGeometry x="970" y="240" width="100" height="50" as="geometry" />
        </mxCell>
        <mxCell id="uoU9AajrR2amF2qVdHtz-94" style="edgeStyle=orthogonalEdgeStyle;rounded=0;orthogonalLoop=1;jettySize=auto;html=1;exitX=0;exitY=0.5;exitDx=0;exitDy=0;entryX=0.75;entryY=1;entryDx=0;entryDy=0;" edge="1" parent="1" source="uoU9AajrR2amF2qVdHtz-55" target="uoU9AajrR2amF2qVdHtz-42">
          <mxGeometry relative="1" as="geometry" />
        </mxCell>
        <mxCell id="uoU9AajrR2amF2qVdHtz-55" value="Cliente(dono)" style="ellipse;whiteSpace=wrap;html=1;shadow=0;strokeColor=#000000;fillColor=#FFFFFF;" vertex="1" parent="1">
          <mxGeometry x="1050" y="185" width="110" height="60" as="geometry" />
        </mxCell>
        <mxCell id="uoU9AajrR2amF2qVdHtz-90" style="edgeStyle=orthogonalEdgeStyle;rounded=0;orthogonalLoop=1;jettySize=auto;html=1;exitX=1;exitY=1;exitDx=0;exitDy=0;entryX=0.75;entryY=0;entryDx=0;entryDy=0;" edge="1" parent="1" source="uoU9AajrR2amF2qVdHtz-56" target="uoU9AajrR2amF2qVdHtz-42">
          <mxGeometry relative="1" as="geometry" />
        </mxCell>
        <mxCell id="uoU9AajrR2amF2qVdHtz-56" value="Peso" style="ellipse;whiteSpace=wrap;html=1;shadow=0;strokeColor=#000000;fillColor=#FFFFFF;" vertex="1" parent="1">
          <mxGeometry x="830" y="15" width="110" height="45" as="geometry" />
        </mxCell>
        <mxCell id="uoU9AajrR2amF2qVdHtz-91" style="edgeStyle=orthogonalEdgeStyle;rounded=0;orthogonalLoop=1;jettySize=auto;html=1;exitX=0;exitY=1;exitDx=0;exitDy=0;entryX=1;entryY=0.5;entryDx=0;entryDy=0;" edge="1" parent="1" source="uoU9AajrR2amF2qVdHtz-57" target="uoU9AajrR2amF2qVdHtz-42">
          <mxGeometry relative="1" as="geometry">
            <mxPoint x="930" y="160" as="targetPoint" />
          </mxGeometry>
        </mxCell>
        <mxCell id="uoU9AajrR2amF2qVdHtz-57" value="Altura" style="ellipse;whiteSpace=wrap;html=1;shadow=0;strokeColor=#000000;fillColor=#FFFFFF;" vertex="1" parent="1">
          <mxGeometry x="960" y="30" width="110" height="50" as="geometry" />
        </mxCell>
        <mxCell id="uoU9AajrR2amF2qVdHtz-92" style="edgeStyle=orthogonalEdgeStyle;rounded=0;orthogonalLoop=1;jettySize=auto;html=1;exitX=0;exitY=1;exitDx=0;exitDy=0;entryX=1;entryY=0.75;entryDx=0;entryDy=0;" edge="1" parent="1" source="uoU9AajrR2amF2qVdHtz-58" target="uoU9AajrR2amF2qVdHtz-42">
          <mxGeometry relative="1" as="geometry" />
        </mxCell>
        <mxCell id="uoU9AajrR2amF2qVdHtz-58" value="Nascimento" style="ellipse;whiteSpace=wrap;html=1;shadow=0;strokeColor=#000000;fillColor=#FFFFFF;" vertex="1" parent="1">
          <mxGeometry x="990" y="125" width="110" height="50" as="geometry" />
        </mxCell>
        <mxCell id="uoU9AajrR2amF2qVdHtz-93" style="edgeStyle=orthogonalEdgeStyle;rounded=0;orthogonalLoop=1;jettySize=auto;html=1;exitX=1;exitY=0;exitDx=0;exitDy=0;entryX=0;entryY=0.75;entryDx=0;entryDy=0;" edge="1" parent="1" source="uoU9AajrR2amF2qVdHtz-59" target="uoU9AajrR2amF2qVdHtz-42">
          <mxGeometry relative="1" as="geometry" />
        </mxCell>
        <mxCell id="uoU9AajrR2amF2qVdHtz-59" value="Espécie" style="ellipse;whiteSpace=wrap;html=1;shadow=0;strokeColor=#000000;fillColor=#FFFFFF;" vertex="1" parent="1">
          <mxGeometry x="670" y="180" width="110" height="50" as="geometry" />
        </mxCell>
        <mxCell id="uoU9AajrR2amF2qVdHtz-89" style="edgeStyle=orthogonalEdgeStyle;rounded=0;orthogonalLoop=1;jettySize=auto;html=1;exitX=1;exitY=1;exitDx=0;exitDy=0;entryX=0.25;entryY=0;entryDx=0;entryDy=0;" edge="1" parent="1" source="uoU9AajrR2amF2qVdHtz-60" target="uoU9AajrR2amF2qVdHtz-42">
          <mxGeometry relative="1" as="geometry" />
        </mxCell>
        <mxCell id="uoU9AajrR2amF2qVdHtz-60" value="Raça" style="ellipse;whiteSpace=wrap;html=1;shadow=0;strokeColor=#000000;fillColor=#FFFFFF;" vertex="1" parent="1">
          <mxGeometry x="730" y="40" width="90" height="50" as="geometry" />
        </mxCell>
        <mxCell id="uoU9AajrR2amF2qVdHtz-88" style="edgeStyle=orthogonalEdgeStyle;rounded=0;orthogonalLoop=1;jettySize=auto;html=1;exitX=1;exitY=1;exitDx=0;exitDy=0;entryX=0;entryY=0.25;entryDx=0;entryDy=0;" edge="1" parent="1" source="uoU9AajrR2amF2qVdHtz-61" target="uoU9AajrR2amF2qVdHtz-42">
          <mxGeometry relative="1" as="geometry" />
        </mxCell>
        <mxCell id="uoU9AajrR2amF2qVdHtz-61" value="&lt;u&gt;Nome&lt;/u&gt;" style="ellipse;whiteSpace=wrap;html=1;shadow=0;strokeColor=#000000;fillColor=#FFFFFF;" vertex="1" parent="1">
          <mxGeometry x="660" y="100" width="90" height="50" as="geometry" />
        </mxCell>
        <mxCell id="uoU9AajrR2amF2qVdHtz-111" style="edgeStyle=orthogonalEdgeStyle;rounded=0;orthogonalLoop=1;jettySize=auto;html=1;exitX=1;exitY=0;exitDx=0;exitDy=0;entryX=0;entryY=0;entryDx=0;entryDy=0;" edge="1" parent="1" target="uoU9AajrR2amF2qVdHtz-43">
          <mxGeometry relative="1" as="geometry">
            <mxPoint x="765.3553390593274" y="521.6152236891496" as="sourcePoint" />
          </mxGeometry>
        </mxCell>
        <mxCell id="uoU9AajrR2amF2qVdHtz-64" value="Cliente atendido" style="ellipse;whiteSpace=wrap;html=1;shadow=0;strokeColor=#000000;fillColor=#FFFFFF;" vertex="1" parent="1">
          <mxGeometry x="725" y="496" width="100" height="52" as="geometry" />
        </mxCell>
        <mxCell id="uoU9AajrR2amF2qVdHtz-110" style="edgeStyle=orthogonalEdgeStyle;rounded=0;orthogonalLoop=1;jettySize=auto;html=1;exitX=1;exitY=0;exitDx=0;exitDy=0;entryX=0;entryY=0.5;entryDx=0;entryDy=0;" edge="1" parent="1" source="uoU9AajrR2amF2qVdHtz-65" target="uoU9AajrR2amF2qVdHtz-43">
          <mxGeometry relative="1" as="geometry" />
        </mxCell>
        <mxCell id="uoU9AajrR2amF2qVdHtz-65" value="Serviço realizado" style="ellipse;whiteSpace=wrap;html=1;shadow=0;strokeColor=#000000;fillColor=#FFFFFF;" vertex="1" parent="1">
          <mxGeometry x="700" y="588" width="110" height="59" as="geometry" />
        </mxCell>
        <mxCell id="uoU9AajrR2amF2qVdHtz-112" style="edgeStyle=orthogonalEdgeStyle;rounded=0;orthogonalLoop=1;jettySize=auto;html=1;exitX=1;exitY=0.5;exitDx=0;exitDy=0;entryX=0.25;entryY=0;entryDx=0;entryDy=0;" edge="1" parent="1" source="uoU9AajrR2amF2qVdHtz-66" target="uoU9AajrR2amF2qVdHtz-43">
          <mxGeometry relative="1" as="geometry" />
        </mxCell>
        <mxCell id="uoU9AajrR2amF2qVdHtz-66" value="Salário" style="ellipse;whiteSpace=wrap;html=1;shadow=0;strokeColor=#000000;fillColor=#FFFFFF;" vertex="1" parent="1">
          <mxGeometry x="700" y="439.5" width="100" height="49" as="geometry" />
        </mxCell>
        <mxCell id="uoU9AajrR2amF2qVdHtz-104" style="edgeStyle=orthogonalEdgeStyle;rounded=0;orthogonalLoop=1;jettySize=auto;html=1;exitX=0;exitY=0.5;exitDx=0;exitDy=0;entryX=1;entryY=0.5;entryDx=0;entryDy=0;" edge="1" parent="1" source="uoU9AajrR2amF2qVdHtz-68" target="uoU9AajrR2amF2qVdHtz-43">
          <mxGeometry relative="1" as="geometry" />
        </mxCell>
        <mxCell id="uoU9AajrR2amF2qVdHtz-68" value="&lt;u&gt;CPF&lt;/u&gt;" style="ellipse;whiteSpace=wrap;html=1;shadow=0;strokeColor=#000000;fillColor=#FFFFFF;" vertex="1" parent="1">
          <mxGeometry x="995" y="523" width="100" height="50" as="geometry" />
        </mxCell>
        <mxCell id="uoU9AajrR2amF2qVdHtz-103" style="edgeStyle=orthogonalEdgeStyle;rounded=0;orthogonalLoop=1;jettySize=auto;html=1;exitX=0.5;exitY=1;exitDx=0;exitDy=0;" edge="1" parent="1" source="uoU9AajrR2amF2qVdHtz-69" target="uoU9AajrR2amF2qVdHtz-43">
          <mxGeometry relative="1" as="geometry" />
        </mxCell>
        <mxCell id="uoU9AajrR2amF2qVdHtz-69" value="Função" style="ellipse;whiteSpace=wrap;html=1;shadow=0;strokeColor=#000000;fillColor=#FFFFFF;" vertex="1" parent="1">
          <mxGeometry x="835" y="398" width="90" height="52" as="geometry" />
        </mxCell>
        <mxCell id="uoU9AajrR2amF2qVdHtz-102" style="edgeStyle=orthogonalEdgeStyle;rounded=0;orthogonalLoop=1;jettySize=auto;html=1;exitX=0;exitY=1;exitDx=0;exitDy=0;entryX=0.75;entryY=0;entryDx=0;entryDy=0;" edge="1" parent="1" source="uoU9AajrR2amF2qVdHtz-70" target="uoU9AajrR2amF2qVdHtz-43">
          <mxGeometry relative="1" as="geometry" />
        </mxCell>
        <mxCell id="uoU9AajrR2amF2qVdHtz-70" value="Nome" style="ellipse;whiteSpace=wrap;html=1;shadow=0;strokeColor=#000000;fillColor=#FFFFFF;" vertex="1" parent="1">
          <mxGeometry x="955" y="418" width="110" height="50" as="geometry" />
        </mxCell>
        <mxCell id="uoU9AajrR2amF2qVdHtz-71" value="PRODUTOS" style="rounded=0;whiteSpace=wrap;html=1;shadow=0;strokeColor=#000000;fillColor=#FFFFFF;" vertex="1" parent="1">
          <mxGeometry x="-30" y="595" width="120" height="60" as="geometry" />
        </mxCell>
        <mxCell id="uoU9AajrR2amF2qVdHtz-115" style="edgeStyle=orthogonalEdgeStyle;rounded=0;orthogonalLoop=1;jettySize=auto;html=1;exitX=0.5;exitY=1;exitDx=0;exitDy=0;entryX=0.5;entryY=0;entryDx=0;entryDy=0;" edge="1" parent="1" source="uoU9AajrR2amF2qVdHtz-72" target="uoU9AajrR2amF2qVdHtz-71">
          <mxGeometry relative="1" as="geometry" />
        </mxCell>
        <mxCell id="uoU9AajrR2amF2qVdHtz-72" value="Descrição" style="ellipse;whiteSpace=wrap;html=1;shadow=0;strokeColor=#000000;fillColor=#FFFFFF;" vertex="1" parent="1">
          <mxGeometry x="-50" y="522" width="90" height="40" as="geometry" />
        </mxCell>
        <mxCell id="uoU9AajrR2amF2qVdHtz-118" style="edgeStyle=orthogonalEdgeStyle;rounded=0;orthogonalLoop=1;jettySize=auto;html=1;exitX=0.5;exitY=1;exitDx=0;exitDy=0;" edge="1" parent="1" source="uoU9AajrR2amF2qVdHtz-73">
          <mxGeometry relative="1" as="geometry">
            <mxPoint x="70" y="592" as="targetPoint" />
          </mxGeometry>
        </mxCell>
        <mxCell id="uoU9AajrR2amF2qVdHtz-73" value="&lt;u&gt;Marca&lt;/u&gt;" style="ellipse;whiteSpace=wrap;html=1;shadow=0;strokeColor=#000000;fillColor=#FFFFFF;" vertex="1" parent="1">
          <mxGeometry x="100" y="516" width="80" height="50.5" as="geometry" />
        </mxCell>
        <mxCell id="uoU9AajrR2amF2qVdHtz-119" style="edgeStyle=orthogonalEdgeStyle;rounded=0;orthogonalLoop=1;jettySize=auto;html=1;exitX=1;exitY=0.5;exitDx=0;exitDy=0;" edge="1" parent="1" source="uoU9AajrR2amF2qVdHtz-74">
          <mxGeometry relative="1" as="geometry">
            <mxPoint x="-10" y="662" as="targetPoint" />
          </mxGeometry>
        </mxCell>
        <mxCell id="uoU9AajrR2amF2qVdHtz-74" value="Vencimento" style="ellipse;whiteSpace=wrap;html=1;shadow=0;strokeColor=#000000;fillColor=#FFFFFF;" vertex="1" parent="1">
          <mxGeometry x="-130" y="693" width="90" height="47" as="geometry" />
        </mxCell>
        <mxCell id="uoU9AajrR2amF2qVdHtz-114" style="edgeStyle=orthogonalEdgeStyle;rounded=0;orthogonalLoop=1;jettySize=auto;html=1;exitX=1;exitY=0.5;exitDx=0;exitDy=0;entryX=0;entryY=0.75;entryDx=0;entryDy=0;" edge="1" parent="1" source="uoU9AajrR2amF2qVdHtz-75" target="uoU9AajrR2amF2qVdHtz-71">
          <mxGeometry relative="1" as="geometry" />
        </mxCell>
        <mxCell id="uoU9AajrR2amF2qVdHtz-75" value="Categoria" style="ellipse;whiteSpace=wrap;html=1;shadow=0;strokeColor=#000000;fillColor=#FFFFFF;" vertex="1" parent="1">
          <mxGeometry x="-160" y="566.5" width="100" height="41.5" as="geometry" />
        </mxCell>
        <mxCell id="uoU9AajrR2amF2qVdHtz-117" style="edgeStyle=orthogonalEdgeStyle;rounded=0;orthogonalLoop=1;jettySize=auto;html=1;exitX=0.5;exitY=0;exitDx=0;exitDy=0;entryX=0.5;entryY=1;entryDx=0;entryDy=0;" edge="1" parent="1" source="uoU9AajrR2amF2qVdHtz-76" target="uoU9AajrR2amF2qVdHtz-71">
          <mxGeometry relative="1" as="geometry" />
        </mxCell>
        <mxCell id="uoU9AajrR2amF2qVdHtz-76" value="Valor" style="ellipse;whiteSpace=wrap;html=1;shadow=0;strokeColor=#000000;fillColor=#FFFFFF;" vertex="1" parent="1">
          <mxGeometry x="-20" y="740" width="100" height="50" as="geometry" />
        </mxCell>
        <mxCell id="uoU9AajrR2amF2qVdHtz-86" style="edgeStyle=orthogonalEdgeStyle;rounded=0;orthogonalLoop=1;jettySize=auto;html=1;exitX=0;exitY=0.5;exitDx=0;exitDy=0;entryX=1;entryY=0.75;entryDx=0;entryDy=0;" edge="1" parent="1" source="uoU9AajrR2amF2qVdHtz-84" target="uoU9AajrR2amF2qVdHtz-41">
          <mxGeometry relative="1" as="geometry" />
        </mxCell>
        <mxCell id="uoU9AajrR2amF2qVdHtz-84" value="compras realizadas" style="ellipse;whiteSpace=wrap;html=1;shadow=0;strokeColor=#000000;fillColor=#FFFFFF;" vertex="1" parent="1">
          <mxGeometry x="420" y="135" width="100" height="50" as="geometry" />
        </mxCell>
        <mxCell id="uoU9AajrR2amF2qVdHtz-87" style="edgeStyle=orthogonalEdgeStyle;rounded=0;orthogonalLoop=1;jettySize=auto;html=1;exitX=0;exitY=1;exitDx=0;exitDy=0;entryX=0.75;entryY=1;entryDx=0;entryDy=0;" edge="1" parent="1" source="uoU9AajrR2amF2qVdHtz-85" target="uoU9AajrR2amF2qVdHtz-41">
          <mxGeometry relative="1" as="geometry" />
        </mxCell>
        <mxCell id="uoU9AajrR2amF2qVdHtz-85" value="Serviços requisitados" style="ellipse;whiteSpace=wrap;html=1;shadow=0;strokeColor=#000000;fillColor=#FFFFFF;" vertex="1" parent="1">
          <mxGeometry x="260" y="230" width="100" height="50" as="geometry" />
        </mxCell>
        <mxCell id="uoU9AajrR2amF2qVdHtz-105" style="edgeStyle=orthogonalEdgeStyle;rounded=0;orthogonalLoop=1;jettySize=auto;html=1;exitX=0;exitY=0.5;exitDx=0;exitDy=0;entryX=0.867;entryY=1.033;entryDx=0;entryDy=0;entryPerimeter=0;" edge="1" parent="1" source="uoU9AajrR2amF2qVdHtz-96" target="uoU9AajrR2amF2qVdHtz-43">
          <mxGeometry relative="1" as="geometry" />
        </mxCell>
        <mxCell id="uoU9AajrR2amF2qVdHtz-96" value="Telefone" style="ellipse;html=1;shape=endState;fillColor=#FFFFFF;strokeColor=#000000;shadow=0;" vertex="1" parent="1">
          <mxGeometry x="965" y="596" width="110" height="60" as="geometry" />
        </mxCell>
        <mxCell id="uoU9AajrR2amF2qVdHtz-106" style="edgeStyle=orthogonalEdgeStyle;rounded=0;orthogonalLoop=1;jettySize=auto;html=1;exitX=0.5;exitY=0;exitDx=0;exitDy=0;entryX=0.5;entryY=1;entryDx=0;entryDy=0;" edge="1" parent="1" source="uoU9AajrR2amF2qVdHtz-97" target="uoU9AajrR2amF2qVdHtz-43">
          <mxGeometry relative="1" as="geometry">
            <mxPoint x="895" y="598" as="targetPoint" />
          </mxGeometry>
        </mxCell>
        <mxCell id="uoU9AajrR2amF2qVdHtz-97" value="Endereço" style="ellipse;whiteSpace=wrap;html=1;" vertex="1" parent="1">
          <mxGeometry x="855" y="628" width="80" height="50" as="geometry" />
        </mxCell>
        <mxCell id="uoU9AajrR2amF2qVdHtz-109" style="edgeStyle=orthogonalEdgeStyle;rounded=0;orthogonalLoop=1;jettySize=auto;html=1;exitX=0;exitY=0;exitDx=0;exitDy=0;entryX=1;entryY=1;entryDx=0;entryDy=0;" edge="1" parent="1" source="uoU9AajrR2amF2qVdHtz-98" target="uoU9AajrR2amF2qVdHtz-97">
          <mxGeometry relative="1" as="geometry" />
        </mxCell>
        <mxCell id="uoU9AajrR2amF2qVdHtz-98" value="Rua" style="ellipse;whiteSpace=wrap;html=1;" vertex="1" parent="1">
          <mxGeometry x="945" y="698" width="80" height="50" as="geometry" />
        </mxCell>
        <mxCell id="uoU9AajrR2amF2qVdHtz-108" style="edgeStyle=orthogonalEdgeStyle;rounded=0;orthogonalLoop=1;jettySize=auto;html=1;exitX=0.5;exitY=0;exitDx=0;exitDy=0;entryX=0.5;entryY=1;entryDx=0;entryDy=0;" edge="1" parent="1" source="uoU9AajrR2amF2qVdHtz-99" target="uoU9AajrR2amF2qVdHtz-97">
          <mxGeometry relative="1" as="geometry" />
        </mxCell>
        <mxCell id="uoU9AajrR2amF2qVdHtz-99" value="Bairro" style="ellipse;whiteSpace=wrap;html=1;" vertex="1" parent="1">
          <mxGeometry x="845" y="718" width="80" height="50" as="geometry" />
        </mxCell>
        <mxCell id="uoU9AajrR2amF2qVdHtz-107" style="edgeStyle=orthogonalEdgeStyle;rounded=0;orthogonalLoop=1;jettySize=auto;html=1;exitX=1;exitY=0;exitDx=0;exitDy=0;entryX=0;entryY=1;entryDx=0;entryDy=0;" edge="1" parent="1" source="uoU9AajrR2amF2qVdHtz-100" target="uoU9AajrR2amF2qVdHtz-97">
          <mxGeometry relative="1" as="geometry" />
        </mxCell>
        <mxCell id="uoU9AajrR2amF2qVdHtz-100" value="Número" style="ellipse;whiteSpace=wrap;html=1;" vertex="1" parent="1">
          <mxGeometry x="735" y="678" width="80" height="50" as="geometry" />
        </mxCell>
        <mxCell id="uoU9AajrR2amF2qVdHtz-120" value="SERVIÇOS" style="rounded=0;whiteSpace=wrap;html=1;shadow=0;strokeColor=#000000;fillColor=#FFFFFF;" vertex="1" parent="1">
          <mxGeometry x="300" y="604" width="120" height="60" as="geometry" />
        </mxCell>
        <mxCell id="uoU9AajrR2amF2qVdHtz-126" style="edgeStyle=orthogonalEdgeStyle;rounded=0;orthogonalLoop=1;jettySize=auto;html=1;exitX=0;exitY=0.5;exitDx=0;exitDy=0;entryX=0.75;entryY=0;entryDx=0;entryDy=0;" edge="1" parent="1" source="uoU9AajrR2amF2qVdHtz-121" target="uoU9AajrR2amF2qVdHtz-120">
          <mxGeometry relative="1" as="geometry" />
        </mxCell>
        <mxCell id="uoU9AajrR2amF2qVdHtz-121" value="&lt;u&gt;Nome&lt;/u&gt;" style="ellipse;whiteSpace=wrap;html=1;shadow=0;strokeColor=#000000;fillColor=#FFFFFF;" vertex="1" parent="1">
          <mxGeometry x="445" y="534" width="90" height="50" as="geometry" />
        </mxCell>
        <mxCell id="uoU9AajrR2amF2qVdHtz-125" style="edgeStyle=orthogonalEdgeStyle;rounded=0;orthogonalLoop=1;jettySize=auto;html=1;exitX=0;exitY=0.5;exitDx=0;exitDy=0;entryX=1;entryY=0.5;entryDx=0;entryDy=0;" edge="1" parent="1" source="uoU9AajrR2amF2qVdHtz-122" target="uoU9AajrR2amF2qVdHtz-120">
          <mxGeometry relative="1" as="geometry" />
        </mxCell>
        <mxCell id="uoU9AajrR2amF2qVdHtz-122" value="Descrição" style="ellipse;whiteSpace=wrap;html=1;shadow=0;strokeColor=#000000;fillColor=#FFFFFF;" vertex="1" parent="1">
          <mxGeometry x="480" y="642" width="90" height="40" as="geometry" />
        </mxCell>
        <mxCell id="uoU9AajrR2amF2qVdHtz-124" style="edgeStyle=orthogonalEdgeStyle;rounded=0;orthogonalLoop=1;jettySize=auto;html=1;exitX=0.5;exitY=0;exitDx=0;exitDy=0;entryX=0.5;entryY=1;entryDx=0;entryDy=0;" edge="1" parent="1" source="uoU9AajrR2amF2qVdHtz-123" target="uoU9AajrR2amF2qVdHtz-120">
          <mxGeometry relative="1" as="geometry" />
        </mxCell>
        <mxCell id="uoU9AajrR2amF2qVdHtz-123" value="Valor" style="ellipse;whiteSpace=wrap;html=1;shadow=0;strokeColor=#000000;fillColor=#FFFFFF;" vertex="1" parent="1">
          <mxGeometry x="360" y="698" width="100" height="50" as="geometry" />
        </mxCell>
      </root>
    </mxGraphModel>
  </diagram>
</mxfile>
